<svg id="Layer_1" data-name="Layer 1" xmlns="http://www.w3.org/2000/svg" viewBox="0 0 878.48 134.7">
    <defs>
        <style>.cls-1{fill:#5aa4e5;}</style>
    </defs>
    <path d="M-380.1-452.89v93.54h-18.76v-39.8h-40.07v39.8h-18.76v-93.54h18.76v38.46h40.07v-38.46Z"
        transform="translate(567.96 476.72)" />
    <path
        d="M-291.26-390.84h-54.27q.66,8,5.62,12.59a17.36,17.36,0,0,0,12.2,4.56q10.45,0,14.87-9h20.24A33.86,33.86,0,0,1-304.93-365q-9.12,6.9-22.38,6.9a38.72,38.72,0,0,1-19.23-4.75,33.45,33.45,0,0,1-13.26-13.47,41.19,41.19,0,0,1-4.76-20.1,42,42,0,0,1,4.69-20.24,32.73,32.73,0,0,1,13.13-13.4,39.4,39.4,0,0,1,19.43-4.69,39,39,0,0,1,19,4.56,32.11,32.11,0,0,1,13,12.93,39.16,39.16,0,0,1,4.62,19.23A45.25,45.25,0,0,1-291.26-390.84Zm-18.9-12.6A14.89,14.89,0,0,0-315.38-415a18.55,18.55,0,0,0-12.47-4.36,17,17,0,0,0-11.72,4.23q-4.76,4.21-5.83,11.72Z"
        transform="translate(567.96 476.72)" />
    <path
        d="M-275.52-416.71a33,33,0,0,1,12.19-13.4,32.54,32.54,0,0,1,17.22-4.69,30.27,30.27,0,0,1,14.54,3.35,29.59,29.59,0,0,1,10,8.45v-10.59h18.89v74.24h-18.89v-10.86a28,28,0,0,1-10,8.65,30.61,30.61,0,0,1-14.67,3.41A31.61,31.61,0,0,1-263.33-363a33.81,33.81,0,0,1-12.19-13.6A43.73,43.73,0,0,1-280-396.74,43,43,0,0,1-275.52-416.71Zm51.26,8.51a18.89,18.89,0,0,0-7.24-7.5,19.37,19.37,0,0,0-9.78-2.61,19.06,19.06,0,0,0-9.65,2.54,19.18,19.18,0,0,0-7.17,7.44,23.3,23.3,0,0,0-2.75,11.59A24.09,24.09,0,0,0-258.1-385a19.73,19.73,0,0,0,7.24,7.7,18.33,18.33,0,0,0,9.58,2.68,19.37,19.37,0,0,0,9.78-2.61,18.85,18.85,0,0,0,7.24-7.51,24.13,24.13,0,0,0,2.68-11.72A24.17,24.17,0,0,0-224.26-408.2Z"
        transform="translate(567.96 476.72)" />
    <path d="M-163.7-458.51v99.16h-18.76v-99.16Z" transform="translate(567.96 476.72)" />
    <path
        d="M-121.49-418.18v35.91c0,2.5.61,4.31,1.81,5.43s3.24,1.67,6.1,1.67h8.71v15.82h-11.79q-23.73,0-23.72-23v-35.78h-8.85v-15.41h8.85v-18.36h18.89v18.36h16.62v15.41Z"
        transform="translate(567.96 476.72)" />
    <path
        d="M-32.65-431A25.37,25.37,0,0,1-22.4-420.12q3.69,7.17,3.69,17.22v43.55H-37.47v-41q0-8.83-4.42-13.6t-12.06-4.76q-7.77,0-12.26,4.76t-4.49,13.6v41H-89.46v-99.16H-70.7v34.17A24.33,24.33,0,0,1-61-431.91a31.9,31.9,0,0,1,13.39-2.75A30.21,30.21,0,0,1-32.65-431Z"
        transform="translate(567.96 476.72)" />
    <path
        d="M103-452.89v93.54H84.2v-60.84L59.14-359.35H44.94L19.75-420.19v60.84H1v-93.54h21.3L52-383.34l29.75-69.55Z"
        transform="translate(567.96 476.72)" />
    <path
        d="M123-416.71a32.94,32.94,0,0,1,12.2-13.4,32.48,32.48,0,0,1,17.21-4.69,30.27,30.27,0,0,1,14.54,3.35,29.59,29.59,0,0,1,10,8.45v-10.59h18.89v74.24H176.93v-10.86a28,28,0,0,1-10,8.65,30.61,30.61,0,0,1-14.67,3.41A31.57,31.57,0,0,1,135.19-363a33.76,33.76,0,0,1-12.2-13.6,43.73,43.73,0,0,1-4.49-20.17A43,43,0,0,1,123-416.71Zm51.26,8.51a18.89,18.89,0,0,0-7.24-7.5,19.37,19.37,0,0,0-9.78-2.61,19.06,19.06,0,0,0-9.65,2.54,19.18,19.18,0,0,0-7.17,7.44,23.3,23.3,0,0,0-2.75,11.59A24.09,24.09,0,0,0,140.41-385a19.73,19.73,0,0,0,7.24,7.7,18.33,18.33,0,0,0,9.58,2.68,19.37,19.37,0,0,0,9.78-2.61,18.85,18.85,0,0,0,7.24-7.51,24.13,24.13,0,0,0,2.68-11.72A24.17,24.17,0,0,0,174.25-408.2Z"
        transform="translate(567.96 476.72)" />
    <path
        d="M244.26-431.31a26.31,26.31,0,0,1,13.33-3.35V-415h-4.95q-8.85,0-13.34,4.15t-4.49,14.47v37H216.05v-74.24h18.76v11.52A26.46,26.46,0,0,1,244.26-431.31Z"
        transform="translate(567.96 476.72)" />
    <path
        d="M293.91-418.18v35.91q0,3.75,1.81,5.43c1.2,1.12,3.23,1.67,6.09,1.67h8.71v15.82H298.73q-23.72,0-23.72-23v-35.78h-8.84v-15.41H275v-18.36h18.9v18.36h16.61v15.41Z"
        transform="translate(567.96 476.72)" />
    <polygon class="cls-1"
        points="94.43 53.88 94.43 13.77 80.66 0 53.92 0 40.38 13.54 40.38 40.1 13.66 40.1 0 53.76 0 80.36 13.62 93.98 39.74 93.98 39.74 121.12 53.32 134.7 80.76 134.7 93.87 121.59 93.87 94.55 80.76 94.55 80.76 120.58 53.92 120.58 53.92 94.68 39.92 80.68 13.66 80.68 13.66 53.76 40.25 53.76 53.98 40.03 53.98 13.77 80.82 13.77 80.82 40.39 94.43 53.88" />
</svg>